# xmcd
#
# Track frame offsets:
#	182
#	21385
#	43255
#	66675
#	90010
#	121655
#	150097
#	180562
#	198475
#	219115
#	240685
#	260865
#	269880
#	287745
#	303512
#
# Disc length: 4314 seconds
# Revision: 0
# Processed by: cddbd v1.5.2PL0 Copyright (c) Steve Scherf et al.
# Submitted via: dBpowerAMP V12.0
#
DISCID=d910d80f
DTITLE=Black Box - Positive Vibration
DYEAR=1997
DGENRE=House
TTITLE0=Rockin' To The Music [Album Version]
TTITLE1=Not Anyone [Album Version]
TTITLE2=Fall Into My Love [Full Length Mix]
TTITLE3=Be What You Want
TTITLE4=So Long
TTITLE5=Think It Over
TTITLE6=A Positive Vibration
TTITLE7=The Beat Of Your Heart
TTITLE8=Native New Yorker [Album Version]
TTITLE9=Don't Give In
TTITLE10=What Is Love
TTITLE11=So Long [Reprise]
TTITLE12=Not Anyone [Kamasutra 7” Radio Edit]
TTITLE13=I Got The Vibration (A Positive Vibration) [Lelewel Freak Edit]
TTITLE14=Native New Yorker [Steve "Silk" Hurley R&B Radio Edit]
EXTD=
EXTT0=
EXTT1=
EXTT2=
EXTT3=
EXTT4=
EXTT5=
EXTT6=
EXTT7=
EXTT8=
EXTT9=
EXTT10=
EXTT11=
EXTT12=
EXTT13=
EXTT14=
PLAYORDER=
